<svg width="38" height="38" viewBox="0 0 38 38" fill="none" xmlns="http://www.w3.org/2000/svg">
<g clip-path="url(#clip0)">
<path d="M19 0C15.2421 0 11.5687 1.11433 8.44414 3.20208C5.31961 5.28982 2.88433 8.25722 1.44627 11.729C0.00820192 15.2008 -0.368061 19.0211 0.365058 22.7067C1.09818 26.3924 2.90775 29.7778 5.56495 32.435C8.22215 35.0922 11.6076 36.9018 15.2933 37.6349C18.9789 38.368 22.7992 37.9918 26.271 36.5537C29.7428 35.1156 32.7102 32.6804 34.7979 29.5558C36.8856 26.4313 38 22.7578 38 19C37.9943 13.9626 35.9907 9.13319 32.4288 5.57122C28.8668 2.00925 24.0374 0.00565751 19 0V0ZM19 34.8333C15.8684 34.8333 12.8072 33.9047 10.2034 32.1649C7.59967 30.4251 5.57027 27.9523 4.37189 25.0592C3.1735 22.166 2.85995 18.9824 3.47088 15.9111C4.08181 12.8397 5.58979 10.0185 7.80412 7.80414C10.0185 5.58981 12.8397 4.08183 15.911 3.4709C18.9824 2.85997 22.166 3.17352 25.0591 4.37191C27.9523 5.5703 30.4251 7.59969 32.1649 10.2035C33.9047 12.8073 34.8333 15.8685 34.8333 19C34.8285 23.1978 33.1589 27.2223 30.1906 30.1906C27.2223 33.1589 23.1978 34.8286 19 34.8333Z" fill="#B1B1B1"/>
<path d="M21.375 11.0834H15.8333C15.4134 11.0834 15.0107 11.2502 14.7137 11.5471C14.4168 11.8441 14.25 12.2468 14.25 12.6667V28.5H17.4167V22.1667H21.375C22.8447 22.1667 24.2543 21.5829 25.2935 20.5436C26.3328 19.5043 26.9167 18.0948 26.9167 16.625C26.9167 15.1553 26.3328 13.7458 25.2935 12.7065C24.2543 11.6672 22.8447 11.0834 21.375 11.0834ZM21.375 19H17.4167V14.25H21.375C22.0049 14.25 22.609 14.5003 23.0544 14.9457C23.4998 15.3911 23.75 15.9951 23.75 16.625C23.75 17.2549 23.4998 17.859 23.0544 18.3044C22.609 18.7498 22.0049 19 21.375 19Z" fill="#B1B1B1"/>
</g>
<defs>
<clipPath id="clip0">
<rect width="38" height="38" fill="white"/>
</clipPath>
</defs>
</svg>
